<?xml version="1.0" encoding="utf-8"?>
<svg width="35px" height="30px" viewbox="0 0 35 30" version="1.1" xmlns:xlink="http://www.w3.org/1999/xlink" xmlns="http://www.w3.org/2000/svg">
  <defs>
    <path d="M0 0L35 0L35 29.3868L0 29.3868L0 0Z" id="path_1" />
    <clipPath id="mask_1">
      <use xlink:href="#path_1" />
    </clipPath>
  </defs>
  <g id="About-icon">
    <path d="M0 0L35 0L35 29.3868L0 29.3868L0 0Z" id="Background" fill="none" fill-rule="evenodd" stroke="none" />
    <g clip-path="url(#mask_1)">
      <path d="M17.5 0C7.85039 0 0 5.85439 0 13.0473C0 16.5232 1.80195 19.7741 5.0832 22.2375C4.47617 23.7413 2.92031 24.7767 1.76367 25.5458C0.702734 26.2506 -0.065625 26.7603 0.164062 27.4812L0.237891 27.7177L0.489453 27.8394C1.12656 28.1447 1.97422 28.3008 3.01602 28.3008C6.48047 28.3008 11.4598 26.6318 13.6527 25.8282C14.8996 26.0463 16.1383 26.1542 17.4289 26.1542C27.0812 26.1542 34.9289 20.2998 34.9289 13.107C34.9289 5.87965 27.1113 0 17.5 0L17.5 0ZM18.6211 19.3953C18.6211 19.5124 18.55 19.6294 18.3395 19.6294L16.7317 19.6294L16.7317 19.572C16.5895 19.572 16.45 19.5124 16.45 19.3379L16.45 11.4608C16.45 11.3438 16.5211 11.2267 16.7317 11.2267L18.3395 11.2267C18.4817 11.2267 18.6211 11.2841 18.6211 11.4608L18.6211 19.3953ZM18.6211 8.69894C18.6211 8.81603 18.55 8.93312 18.3395 8.93312L16.6606 8.93312C16.5211 8.93312 16.3817 8.87572 16.3817 8.69894L16.3817 7.16991C16.3817 7.05282 16.45 6.93574 16.6606 6.93574L18.3395 6.93574C18.4817 6.93574 18.6211 6.99313 18.6211 7.16991L18.6211 8.69894Z" transform="translate(0 0.5877342)" id="Shape" fill="#000000" fill-rule="evenodd" stroke="none" />
    </g>
  </g>
</svg>