<?xml version="1.0" encoding="utf-8"?>
<svg width="26px" height="24px" viewbox="0 0 26 24" version="1.1" xmlns:xlink="http://www.w3.org/1999/xlink" xmlns="http://www.w3.org/2000/svg">
  <g id="Idea-icon">
    <path d="M12.4986 0.000127281C11.9241 0.00910753 11.4653 0.481523 11.4732 1.05604L11.4732 2.0977C11.4679 2.47336 11.6652 2.82278 11.9897 3.01217C12.3142 3.20155 12.7155 3.20155 13.04 3.01217C13.3644 2.82279 13.5618 2.47336 13.5565 2.0977L13.5565 1.05604C13.5604 0.774478 13.4501 0.503346 13.2508 0.304423C13.0515 0.1055 12.7801 -0.004269 12.4986 0.000127157L12.4986 0.000127281ZM4.40123 3.3591C3.97681 3.35919 3.59487 3.61674 3.4357 4.01019C3.27653 4.40363 3.37196 4.8543 3.67694 5.14947L4.41343 5.88596C4.6747 6.15807 5.06267 6.26769 5.42771 6.17252C5.79275 6.07736 6.07782 5.79229 6.17298 5.42725C6.26815 5.06221 6.15853 4.67424 5.88642 4.41297L5.14993 3.67648C4.95366 3.47363 4.68348 3.3591 4.40123 3.3591L4.40123 3.3591ZM20.5959 3.36114C20.3253 3.36921 20.0684 3.48231 19.8798 3.67649L19.1433 4.41298C18.8711 4.67425 18.7615 5.06222 18.8567 5.42726C18.9519 5.7923 19.2369 6.07737 19.602 6.17253C19.967 6.2677 20.355 6.15808 20.6162 5.88596L21.3527 5.14947C21.6608 4.85 21.7535 4.39211 21.586 3.99644C21.4185 3.60076 21.0254 3.34848 20.5959 3.36114L20.5959 3.36114ZM12.5148 5.22269C8.49401 5.22269 5.22318 8.49352 5.22318 12.5144C5.22318 15.4154 6.93047 17.919 9.38984 19.0919L9.38984 21.8894C9.38984 23.0383 10.3242 23.9727 11.4732 23.9727L13.5565 23.9727C14.7055 23.9727 15.6398 23.0383 15.6398 21.8894L15.6398 19.0919C18.0992 17.919 19.8065 15.4154 19.8065 12.5144C19.8065 8.49352 16.5357 5.22269 12.5148 5.22269L12.5148 5.22269ZM1.0565 11.4727C0.680839 11.4674 0.331417 11.6648 0.142035 11.9892C-0.0473459 12.3137 -0.0473451 12.715 0.142037 13.0395C0.33142 13.364 0.680843 13.5613 1.05651 13.556L2.09817 13.556C2.47383 13.5613 2.82325 13.364 3.01264 13.0395C3.20202 12.715 3.20202 12.3137 3.01263 11.9892C2.82325 11.6648 2.47383 11.4674 2.09816 11.4727L1.0565 11.4727L1.0565 11.4727ZM22.9315 11.4727C22.5558 11.4674 22.2064 11.6648 22.017 11.9892C21.8277 12.3137 21.8277 12.715 22.017 13.0395C22.2064 13.364 22.5558 13.5613 22.9315 13.556L23.9732 13.556C24.3488 13.5613 24.6983 13.364 24.8876 13.0395C25.077 12.715 25.077 12.3137 24.8876 11.9892C24.6982 11.6648 24.3488 11.4674 23.9732 11.4727L22.9315 11.4727L22.9315 11.4727ZM5.12957 18.8275C4.85895 18.8355 4.6021 18.9486 4.41343 19.1428L3.67694 19.8793C3.40482 20.1406 3.29521 20.5285 3.39037 20.8936C3.48554 21.2586 3.77061 21.5437 4.13565 21.6388C4.50069 21.734 4.88865 21.6244 5.14992 21.3523L5.88641 20.6158C6.19449 20.3163 6.28713 19.8584 6.11967 19.4627C5.95222 19.0671 5.55904 18.8148 5.12957 18.8275L5.12957 18.8275ZM19.8696 18.8274C19.4457 18.8275 19.0641 19.0845 18.9046 19.4772C18.7451 19.8699 18.8395 20.3201 19.1433 20.6158L19.8797 21.3522C20.141 21.6244 20.529 21.734 20.894 21.6388C21.2591 21.5436 21.5441 21.2586 21.6393 20.8935C21.7345 20.5285 21.6248 20.1405 21.3527 19.8793L20.6162 19.1428C20.4201 18.9412 20.1508 18.8274 19.8696 18.8274L19.8696 18.8274Z" id="Shape" fill="#FFFFFF" fill-rule="evenodd" stroke="none" />
  </g>
</svg>