<svg width="16" height="17" viewBox="0 0 16 17" fill="none" xmlns="http://www.w3.org/2000/svg">
<path fill-rule="evenodd" clip-rule="evenodd" d="M10.6879 15.5492H10.6859C10.6019 15.5492 10.5283 15.5826 10.4669 15.6304C10.4551 15.6398 10.4403 15.6453 10.4297 15.6559C10.3708 15.7151 10.3368 15.7961 10.3294 15.8844C10.3287 15.8943 10.3238 15.9029 10.3238 15.913C10.3238 15.958 10.3344 15.9999 10.3494 16.0394C10.3543 16.0522 10.3605 16.0633 10.3666 16.0754C10.3799 16.1014 10.3959 16.1253 10.4152 16.1473C10.4245 16.1581 10.4329 16.1692 10.4435 16.1789C10.4726 16.2053 10.5046 16.2285 10.5411 16.2445H10.5413C10.5864 16.2645 10.6357 16.2766 10.6879 16.2766C10.8498 16.2766 10.9821 16.169 11.0292 16.0221C11.0417 15.9886 11.0504 15.9535 11.0506 15.915C11.0506 15.9143 11.0511 15.9138 11.0511 15.913C11.0511 15.7119 10.8885 15.5492 10.6879 15.5492ZM15.7686 11.2126C15.7334 11.1978 15.6942 11.1921 15.6541 11.1894C15.6469 11.1891 15.6412 11.1852 15.6339 11.1852H15.6319C15.4313 11.1852 15.2697 11.348 15.2697 11.5491C15.2697 11.598 15.28 11.6441 15.2975 11.686C15.3099 11.7161 15.3301 11.7403 15.349 11.7657C15.3569 11.7753 15.3613 11.7872 15.3697 11.7961C15.4301 11.8602 15.5134 11.8997 15.6065 11.9071C15.607 11.9071 15.6075 11.9073 15.608 11.9076V11.9073C15.6169 11.9081 15.6247 11.9125 15.6339 11.9125C15.8344 11.9125 15.997 11.7497 15.997 11.5491C15.997 11.3961 15.9022 11.2664 15.7686 11.2126ZM3.26902 4.78456H3.26705C3.06648 4.78456 2.90485 4.9474 2.90485 5.14823C2.90485 5.34882 3.06846 5.51191 3.26902 5.51191C3.46933 5.51191 3.6322 5.34882 3.6322 5.14823C3.6322 4.9474 3.46933 4.78456 3.26902 4.78456ZM3.26902 13.3672H3.26705C3.06648 13.3672 2.90485 13.5299 2.90485 13.731C2.90485 13.9317 3.06846 14.0946 3.26902 14.0946C3.46933 14.0946 3.6322 13.9317 3.6322 13.731C3.6322 13.5299 3.46933 13.3672 3.26902 13.3672ZM5.74198 7.69394C5.94255 7.69394 6.10516 7.53085 6.10516 7.33026C6.10516 7.12918 5.94255 6.96659 5.74198 6.96659H5.74026C5.53945 6.96659 5.37782 7.12918 5.37782 7.33026C5.37782 7.53085 5.54142 7.69394 5.74198 7.69394ZM3.26902 2.60253H3.26705C3.06648 2.60253 2.90485 2.76537 2.90485 2.9662C2.90485 3.16704 3.06846 3.32988 3.26902 3.32988C3.46933 3.32988 3.6322 3.16704 3.6322 2.9662C3.6322 2.76537 3.46933 2.60253 3.26902 2.60253ZM3.26902 9.00315H3.26705C3.06648 9.00315 2.90485 9.16599 2.90485 9.36683C2.90485 9.56766 3.06846 9.7305 3.26902 9.7305C3.46933 9.7305 3.6322 9.56766 3.6322 9.36683C3.6322 9.16599 3.46933 9.00315 3.26902 9.00315ZM3.26902 11.1852H3.26705C3.06648 11.1852 2.90485 11.348 2.90485 11.5491C2.90485 11.7497 3.06846 11.9125 3.26902 11.9125C3.46933 11.9125 3.6322 11.7497 3.6322 11.5491C3.6322 11.348 3.46933 11.1852 3.26902 11.1852ZM5.74198 3.32988C5.94255 3.32988 6.10516 3.16704 6.10516 2.9662C6.10516 2.76537 5.94255 2.60253 5.74198 2.60253H5.74026C5.53945 2.60253 5.37782 2.76537 5.37782 2.9662C5.37782 3.16704 5.54142 3.32988 5.74198 3.32988ZM5.74198 5.51191C5.94255 5.51191 6.10516 5.34882 6.10516 5.14823C6.10516 4.9474 5.94255 4.78456 5.74198 4.78456H5.74026C5.53945 4.78456 5.37782 4.9474 5.37782 5.14823C5.37782 5.34882 5.54142 5.51191 5.74198 5.51191ZM5.74198 1.14785C5.94255 1.14785 6.10516 0.985007 6.10516 0.784173C6.10516 0.58334 5.94255 0.420502 5.74198 0.420502H5.74026C5.53945 0.420502 5.37782 0.58334 5.37782 0.784173C5.37782 0.985007 5.54142 1.14785 5.74198 1.14785ZM3.26902 6.96659H3.26705C3.06648 6.96659 2.90485 7.12918 2.90485 7.33026C2.90485 7.53085 3.06846 7.69394 3.26902 7.69394C3.46933 7.69394 3.6322 7.53085 3.6322 7.33026C3.6322 7.12918 3.46933 6.96659 3.26902 6.96659ZM0.796296 9.00315H0.794078C0.593517 9.00315 0.431885 9.16599 0.431885 9.36683C0.431885 9.56766 0.595734 9.7305 0.796296 9.7305C0.996857 9.7305 1.15923 9.56766 1.15923 9.36683C1.15923 9.16599 0.996857 9.00315 0.796296 9.00315ZM0.796296 6.96659H0.794078C0.593517 6.96659 0.431885 7.12918 0.431885 7.33026C0.431885 7.53085 0.595734 7.69394 0.796296 7.69394C0.996857 7.69394 1.15923 7.53085 1.15923 7.33026C1.15923 7.12918 0.996857 6.96659 0.796296 6.96659ZM0.796173 11.1852H0.793954C0.748357 11.1852 0.705717 11.1955 0.666035 11.2113C0.645824 11.219 0.629064 11.2313 0.610825 11.2424C0.595543 11.252 0.580015 11.2607 0.566213 11.2728C0.542305 11.2923 0.523573 11.315 0.505334 11.3401C0.501883 11.3453 0.498433 11.35 0.494982 11.3557C0.475264 11.3863 0.460722 11.4183 0.450863 11.4544L0.450617 11.4546V11.4549C0.442237 11.4854 0.431885 11.5155 0.431885 11.5491C0.431885 11.6922 0.516918 11.8133 0.637444 11.8726V11.8728H0.63769C0.685753 11.8962 0.737512 11.9118 0.794201 11.912C0.79494 11.912 0.795433 11.9125 0.796173 11.9125C0.996802 11.9125 1.15923 11.7497 1.15923 11.5491C1.15923 11.4988 1.14912 11.4509 1.13064 11.4075C1.07567 11.277 0.946522 11.1852 0.796173 11.1852ZM13.1609 6.96659H13.1589C12.9584 6.96659 12.7967 7.12918 12.7967 7.33026C12.7967 7.53085 12.9603 7.69394 13.1609 7.69394C13.3614 7.69394 13.5241 7.53085 13.5241 7.33026C13.5241 7.12918 13.3614 6.96659 13.1609 6.96659ZM0.796173 4.78456H0.793954C0.752547 4.78456 0.714343 4.79369 0.678358 4.808C0.645577 4.81935 0.616986 4.83637 0.589381 4.85611C0.589135 4.85611 0.589135 4.85611 0.588888 4.85636C0.495968 4.92223 0.431885 5.02537 0.431885 5.14823C0.431885 5.16378 0.438786 5.17685 0.440758 5.19215H0.440511C0.440511 5.19264 0.440758 5.19289 0.441004 5.19314C0.452342 5.28171 0.492024 5.35992 0.555368 5.41667C0.563995 5.42457 0.574839 5.42901 0.583959 5.43591C0.608853 5.45417 0.632761 5.47317 0.662091 5.48477C0.703252 5.50179 0.74811 5.51191 0.796173 5.51191C0.946522 5.51191 1.07567 5.42037 1.13064 5.28961C1.14912 5.24618 1.15923 5.19832 1.15923 5.14823C1.15923 5.09815 1.14912 5.05028 1.13064 5.00686C1.07567 4.8761 0.946522 4.78456 0.796173 4.78456ZM13.1609 9.00315H13.1589C12.9584 9.00315 12.7967 9.16599 12.7967 9.36683C12.7967 9.56766 12.9603 9.7305 13.1609 9.7305C13.3614 9.7305 13.5241 9.56766 13.5241 9.36683C13.5241 9.16599 13.3614 9.00315 13.1609 9.00315ZM13.1609 4.78456H13.1589C12.9584 4.78456 12.7967 4.9474 12.7967 5.14823C12.7967 5.34882 12.9603 5.51191 13.1609 5.51191C13.3614 5.51191 13.5241 5.34882 13.5241 5.14823C13.5241 4.9474 13.3614 4.78456 13.1609 4.78456ZM13.1609 13.3672H13.1589C12.9584 13.3672 12.7967 13.5299 12.7967 13.731C12.7967 13.9317 12.9603 14.0946 13.1609 14.0946C13.3614 14.0946 13.5241 13.9317 13.5241 13.731C13.5241 13.5299 13.3614 13.3672 13.1609 13.3672ZM13.1609 11.1852H13.1589C12.9584 11.1852 12.7967 11.348 12.7967 11.5491C12.7967 11.7497 12.9603 11.9125 13.1609 11.9125C13.3614 11.9125 13.5241 11.7497 13.5241 11.5491C13.5241 11.348 13.3614 11.1852 13.1609 11.1852ZM10.688 1.14785C10.8885 1.14785 11.0511 0.985007 11.0511 0.784173C11.0511 0.784173 11.0509 0.783927 11.0509 0.78368C11.0509 0.724713 11.0336 0.671174 11.0085 0.621829C11.006 0.617141 11.0028 0.613687 11.0001 0.609246C10.9738 0.562615 10.9378 0.523879 10.8942 0.492792H10.894C10.8346 0.450602 10.7661 0.420502 10.688 0.420502H10.6861C10.4856 0.420502 10.3238 0.58334 10.3238 0.784173C10.3238 0.985007 10.4875 1.14785 10.688 1.14785ZM13.1609 2.60253H13.1589C12.9584 2.60253 12.7967 2.76537 12.7967 2.9662C12.7967 3.16704 12.9603 3.32988 13.1609 3.32988C13.3614 3.32988 13.5241 3.16704 13.5241 2.9662C13.5241 2.76537 13.3614 2.60253 13.1609 2.60253ZM10.6879 4.78456H10.6859C10.4854 4.78456 10.3238 4.9474 10.3238 5.14823C10.3238 5.34882 10.4874 5.51191 10.6879 5.51191C10.8885 5.51191 11.0511 5.34882 11.0511 5.14823C11.0511 4.9474 10.8885 4.78456 10.6879 4.78456ZM10.6879 11.1852H10.6859C10.4854 11.1852 10.3238 11.348 10.3238 11.5491C10.3238 11.7497 10.4874 11.9125 10.6879 11.9125C10.8885 11.9125 11.0511 11.7497 11.0511 11.5491C11.0511 11.348 10.8885 11.1852 10.6879 11.1852ZM10.6879 9.00315H10.6859C10.4854 9.00315 10.3238 9.16599 10.3238 9.36683C10.3238 9.56766 10.4874 9.7305 10.6879 9.7305C10.8885 9.7305 11.0511 9.56766 11.0511 9.36683C11.0511 9.16599 10.8885 9.00315 10.6879 9.00315ZM10.6879 6.96659H10.6859C10.4854 6.96659 10.3238 7.12918 10.3238 7.33026C10.3238 7.53085 10.4874 7.69394 10.6879 7.69394C10.8885 7.69394 11.0511 7.53085 11.0511 7.33026C11.0511 7.12918 10.8885 6.96659 10.6879 6.96659ZM10.6879 13.3672H10.6859C10.4854 13.3672 10.3238 13.5299 10.3238 13.731C10.3238 13.9317 10.4874 14.0946 10.6879 14.0946C10.8885 14.0946 11.0511 13.9317 11.0511 13.731C11.0511 13.5299 10.8885 13.3672 10.6879 13.3672ZM5.74198 9.7305C5.94255 9.7305 6.10516 9.56766 6.10516 9.36683C6.10516 9.16599 5.94255 9.00315 5.74198 9.00315H5.74026C5.53945 9.00315 5.37782 9.16599 5.37782 9.36683C5.37782 9.56766 5.54142 9.7305 5.74198 9.7305ZM5.99872 15.6559C5.98788 15.645 5.9731 15.6396 5.96103 15.6304C5.89967 15.5826 5.826 15.5492 5.74198 15.5492H5.74001C5.53945 15.5492 5.37782 15.7119 5.37782 15.913C5.37782 16.0118 5.41798 16.1006 5.48204 16.1663C5.48229 16.1665 5.48229 16.1668 5.48254 16.1668C5.54857 16.2344 5.64023 16.2766 5.74198 16.2766C5.7612 16.2766 5.77771 16.2687 5.79619 16.2657C5.79644 16.2657 5.79668 16.2655 5.79693 16.2655C5.88267 16.2522 5.95758 16.2127 6.01203 16.1502C6.0209 16.1406 6.02607 16.1288 6.03371 16.1181C6.05022 16.0947 6.06771 16.0725 6.07855 16.0456C6.09482 16.0053 6.10442 15.9614 6.10467 15.9145C6.10467 15.914 6.10516 15.9138 6.10516 15.913C6.10516 15.8207 6.06796 15.7388 6.01154 15.6746C6.00636 15.6687 6.00414 15.661 5.99872 15.6559ZM15.4923 5.4833C15.5359 5.50179 15.5837 5.51191 15.634 5.51191C15.687 5.51191 15.7365 5.49933 15.7819 5.47886C15.7833 5.47812 15.7843 5.47688 15.7858 5.47614C15.8302 5.45543 15.8684 5.42632 15.9007 5.39031C15.9593 5.32594 15.997 5.24208 15.997 5.14836C15.997 4.94759 15.8344 4.78456 15.634 4.78456H15.632C15.4314 4.78456 15.2697 4.94759 15.2697 5.14836C15.2697 5.29881 15.3616 5.42805 15.4923 5.4833ZM15.634 7.69394C15.8344 7.69394 15.997 7.53085 15.997 7.33026C15.997 7.12918 15.8344 6.96659 15.634 6.96659H15.632C15.4314 6.96659 15.2697 7.12918 15.2697 7.33026C15.2697 7.53085 15.4331 7.69394 15.634 7.69394ZM15.634 9.7305C15.8344 9.7305 15.997 9.56766 15.997 9.36683C15.997 9.16599 15.8344 9.00315 15.634 9.00315H15.632C15.4314 9.00315 15.2697 9.16599 15.2697 9.36683C15.2697 9.56766 15.4331 9.7305 15.634 9.7305ZM8.21495 4.78456H8.21323C8.01267 4.78456 7.85079 4.9474 7.85079 5.14823C7.85079 5.34882 8.01439 5.51191 8.21495 5.51191C8.41551 5.51191 8.57813 5.34882 8.57813 5.14823C8.57813 4.9474 8.41551 4.78456 8.21495 4.78456ZM8.21495 2.60253H8.21323C8.01267 2.60253 7.85079 2.76537 7.85079 2.9662C7.85079 3.16704 8.01439 3.32988 8.21495 3.32988C8.41551 3.32988 8.57813 3.16704 8.57813 2.9662C8.57813 2.76537 8.41551 2.60253 8.21495 2.60253ZM8.21495 0.420502H8.21323C8.01267 0.420502 7.85079 0.58334 7.85079 0.784173C7.85079 0.985007 8.01439 1.14785 8.21495 1.14785C8.41551 1.14785 8.57813 0.985007 8.57813 0.784173C8.57813 0.58334 8.41551 0.420502 8.21495 0.420502ZM5.74198 14.0946C5.94255 14.0946 6.10516 13.9317 6.10516 13.731C6.10516 13.5299 5.94255 13.3672 5.74198 13.3672H5.74026C5.53945 13.3672 5.37782 13.5299 5.37782 13.731C5.37782 13.9317 5.54142 14.0946 5.74198 14.0946ZM5.74198 11.9125C5.94255 11.9125 6.10516 11.7497 6.10516 11.5491C6.10516 11.348 5.94255 11.1852 5.74198 11.1852H5.74026C5.53945 11.1852 5.37782 11.348 5.37782 11.5491C5.37782 11.7497 5.54142 11.9125 5.74198 11.9125ZM8.21495 6.96659H8.21323C8.01267 6.96659 7.85079 7.12918 7.85079 7.33026C7.85079 7.53085 8.01439 7.69394 8.21495 7.69394C8.41551 7.69394 8.57813 7.53085 8.57813 7.33026C8.57813 7.12918 8.41551 6.96659 8.21495 6.96659ZM10.6879 2.60253H10.6859C10.4854 2.60253 10.3238 2.76537 10.3238 2.9662C10.3238 3.16704 10.4874 3.32988 10.6879 3.32988C10.8885 3.32988 11.0511 3.16704 11.0511 2.9662C11.0511 2.76537 10.8885 2.60253 10.6879 2.60253ZM8.21495 13.3672H8.21323C8.01267 13.3672 7.85079 13.5299 7.85079 13.731C7.85079 13.9317 8.01439 14.0946 8.21495 14.0946C8.41551 14.0946 8.57813 13.9317 8.57813 13.731C8.57813 13.5299 8.41551 13.3672 8.21495 13.3672ZM8.21495 15.5492H8.21323C8.01267 15.5492 7.85079 15.7121 7.85079 15.913C7.85079 16.1139 8.01439 16.2766 8.21495 16.2766C8.41551 16.2766 8.57813 16.1139 8.57813 15.913C8.57813 15.7121 8.41551 15.5492 8.21495 15.5492ZM8.21495 11.1852H8.21323C8.01267 11.1852 7.85079 11.348 7.85079 11.5491C7.85079 11.7497 8.01439 11.9125 8.21495 11.9125C8.41551 11.9125 8.57813 11.7497 8.57813 11.5491C8.57813 11.348 8.41551 11.1852 8.21495 11.1852ZM8.21495 9.00315H8.21323C8.01267 9.00315 7.85079 9.16599 7.85079 9.36683C7.85079 9.56766 8.01439 9.7305 8.21495 9.7305C8.41551 9.7305 8.57813 9.56766 8.57813 9.36683C8.57813 9.16599 8.41551 9.00315 8.21495 9.00315Z" fill="#130D3A"/>
</svg>
