<?xml version="1.0" encoding="utf-8"?>
<svg width="37px" height="30px" viewbox="0 0 37 30" version="1.1" xmlns:xlink="http://www.w3.org/1999/xlink" xmlns="http://www.w3.org/2000/svg">
  <g id="Home-icon">
    <path d="M28.5659 0C27.7685 0 27.1181 0.550763 27.1181 1.22605L27.1181 7.08807L19.4719 0.613023C18.9063 0.134099 17.9562 0.134099 17.3907 0.613023L0.424162 15.0191C-0.141387 15.498 -0.141387 16.2643 0.424162 16.7432C0.989712 17.2221 1.89459 17.2221 2.46014 16.7432L18.4313 3.21837L34.4476 16.7815C34.7304 17.021 35.115 17.1646 35.4883 17.1646C35.8615 17.1646 36.2008 17.021 36.4836 16.7815C37.0492 16.3026 37.0492 15.5363 36.4836 15.0574L31.4615 10.8045L31.4615 1.22605C31.4615 0.550763 30.8112 0 30.0137 0L28.5659 0ZM18.4313 5.47889L2.50537 18.9654L2.50537 25.7086C2.50537 27.7393 4.45086 29.3868 6.84879 29.3868L30.0137 29.3868C32.4117 29.3868 34.3571 27.7393 34.3571 25.7086L34.3571 18.9654L18.4313 5.47889ZM15.5356 17.1263L21.3269 17.1263C22.1243 17.1263 22.7747 17.6771 22.7747 18.3524L22.7747 25.7086C22.7747 26.3839 22.1243 26.9347 21.3269 26.9347L15.5356 26.9347C14.7382 26.9347 14.0878 26.3839 14.0878 25.7086L14.0878 18.3524C14.0878 17.6771 14.7382 17.1263 15.5356 17.1263L15.5356 17.1263Z" id="Shape" fill="#000000" fill-rule="evenodd" stroke="none" />
  </g>
</svg>