<?xml version="1.0" encoding="utf-8"?>
<svg width="33px" height="34px" viewbox="0 0 33 34" version="1.1" xmlns:xlink="http://www.w3.org/1999/xlink" xmlns="http://www.w3.org/2000/svg">
  <g id="Search-icon">
    <path d="M12.8596 0C5.75018 0 0 5.75018 0 12.8596C0 19.969 5.75018 25.7192 12.8596 25.7192C15.3978 25.7192 17.747 24.9746 19.7385 23.7099L29.0287 33L32.2436 29.7851L23.0716 20.6368C24.7205 18.4739 25.7192 15.7938 25.7192 12.8596C25.7192 5.75018 19.969 0 12.8596 0L12.8596 0ZM12.8596 3.02579C18.3054 3.02579 22.6934 7.41377 22.6934 12.8596C22.6934 18.3054 18.3054 22.6934 12.8596 22.6934C7.41377 22.6934 3.02579 18.3054 3.02579 12.8596C3.02579 7.41377 7.41377 3.02579 12.8596 3.02579L12.8596 3.02579Z" id="Shape" fill="#000000" fill-rule="evenodd" stroke="none" />
  </g>
</svg>