<?xml version="1.0" encoding="utf-8"?>
<svg width="24px" height="25px" viewbox="0 0 24 25" version="1.1" xmlns:xlink="http://www.w3.org/1999/xlink" xmlns="http://www.w3.org/2000/svg">
  <g id="Settings-icon">
    <path d="M23.5627 10.0292L20.479 9.52518C20.2985 8.90634 20.0517 8.31151 19.7428 7.7485L21.5429 5.18289C21.6885 4.97574 21.6634 4.69345 21.4845 4.51396L19.4553 2.48578C19.2742 2.30524 18.9893 2.28176 18.7816 2.43152L16.2546 4.24785C15.6864 3.93373 15.0864 3.68432 14.4639 3.50326L13.9259 0.432038C13.8821 0.182625 13.6655 0 13.4119 0L10.5421 0C10.2865 0 10.0684 0.185234 10.0271 0.437777L9.52831 3.4923C8.90216 3.67232 8.30107 3.91912 7.73493 4.22906L5.21471 2.42891C5.00652 2.2802 4.72319 2.3042 4.54213 2.48422L2.51396 4.51239C2.33499 4.69137 2.30994 4.97313 2.45552 5.18028L4.22906 7.71772C3.91338 8.28907 3.66188 8.89382 3.47874 9.52309L0.436212 10.0297C0.184712 10.0715 0 10.2896 0 10.5442L0 13.414C0 13.6671 0.181581 13.8836 0.430472 13.928L3.473 14.4675C3.6551 15.0952 3.9066 15.7 4.22332 16.2729L2.42786 18.7842C2.27968 18.9914 2.30316 19.2758 2.48317 19.4568L4.51187 21.4871C4.69084 21.6661 4.97313 21.6911 5.18028 21.5455L7.72137 19.7657C8.29168 20.0793 8.89434 20.3282 9.51891 20.5087L10.0282 23.5669C10.0694 23.8179 10.287 24.0021 10.5421 24.0021L13.4119 24.0021C13.665 24.0021 13.8816 23.8205 13.9254 23.5716L14.4706 20.4983C15.0963 20.3141 15.6958 20.0637 16.2604 19.7495L18.8197 21.545C19.0274 21.6916 19.3092 21.6661 19.4886 21.4871L21.5173 19.4568C21.6979 19.2758 21.7214 18.9904 21.5716 18.7827L19.7464 16.2484C20.0558 15.6848 20.3016 15.089 20.4806 14.4701L23.5685 13.928C23.8184 13.8842 24 13.6671 24 13.414L24 10.5442C24.0005 10.2885 23.8153 10.0704 23.5627 10.0292L23.5627 10.0292ZM12 15.6535C9.98279 15.6535 8.34751 14.0183 8.34751 12.0011C8.34751 9.98384 9.98279 8.34856 12 8.34856C14.0172 8.34856 15.6525 9.98384 15.6525 12.0011C15.6525 14.0183 14.0172 15.6535 12 15.6535L12 15.6535Z" id="Shape" fill="#FFFFFF" fill-rule="evenodd" stroke="none" />
  </g>
</svg>