<?xml version="1.0" encoding="utf-8"?>
<svg width="37px" height="111px" viewbox="0 0 37 111" version="1.1" xmlns:xlink="http://www.w3.org/1999/xlink" xmlns="http://www.w3.org/2000/svg">
  <defs>
    <path d="M0 0L37 0L37 111L0 111L0 0Z" id="path_1" />
    <clipPath id="mask_1">
      <use xlink:href="#path_1" />
    </clipPath>
  </defs>
  <g id="waves">
    <path d="M0 0L37 0L37 111L0 111L0 0Z" id="Background" fill="none" fill-rule="evenodd" stroke="none" />
    <g clip-path="url(#mask_1)">
      <path d="M0 101.818C0 96.8369 2.93515 94.3403 5.52145 92.1369C7.90472 90.1091 9.78857 88.5088 9.78857 85.1569C9.78857 81.8028 7.90472 80.2003 5.52145 78.1705C2.93515 75.9671 0 73.4699 0 68.4888C0 63.5099 2.93515 61.0149 5.52145 58.8093C7.90472 56.7839 9.78857 55.1814 9.78857 51.8317C9.78857 48.4776 7.90472 46.8729 5.52145 44.8431C2.93515 42.6396 0 40.1402 0 35.1592C0 30.1736 2.93293 27.6742 5.51914 25.4685C7.90472 23.4365 9.78857 21.8318 9.78857 18.4754C9.78857 15.1168 7.90472 13.5143 5.52145 11.4823C2.93293 9.27664 0 6.77498 0 1.79167C0 0.801247 0.821029 0 1.83366 0C2.84857 0 3.6696 0.801247 3.6696 1.79167C3.6696 5.14801 5.55337 6.75272 7.93663 8.78482C10.5252 10.9904 13.4558 13.4898 13.4558 18.4754C13.4558 23.4587 10.5252 25.9604 7.93441 28.1661C5.55337 30.1981 3.6696 31.8028 3.6696 35.1592C3.6696 38.5132 5.55337 40.1158 7.93441 42.1456C10.5252 44.349 13.4558 46.8485 13.4558 51.8317C13.4558 56.8106 10.5229 59.3056 7.93441 61.5112C5.55115 63.5388 3.6696 65.1392 3.6696 68.4888C3.6696 71.8407 5.55115 73.4432 7.93441 75.473C10.5229 77.6764 13.4558 80.1759 13.4558 85.1569C13.4558 90.1358 10.5229 92.6355 7.93441 94.8361C5.55115 96.8637 3.6696 98.4667 3.6696 101.818C3.6696 102.807 2.84857 103.61 1.83366 103.61C0.821029 103.61 0 102.807 0 101.818L0 101.818Z" transform="translate(7.7369385 0.91064453)" id="Shape" fill="#F64B4B" fill-rule="evenodd" stroke="none" />
      <path d="M0 101.818C0 96.8369 2.93515 94.3403 5.52145 92.1369C7.90472 90.1091 9.78857 88.5088 9.78857 85.1569C9.78857 81.8028 7.90472 80.2003 5.52145 78.1705C2.93515 75.9671 0 73.4699 0 68.4888C0 63.5099 2.93515 61.0149 5.52145 58.8093C7.90472 56.7839 9.78857 55.1814 9.78857 51.8317C9.78857 48.4776 7.90472 46.8729 5.52145 44.8431C2.93515 42.6396 0 40.1402 0 35.1592C0 30.1736 2.93293 27.6742 5.51914 25.4685C7.90472 23.4365 9.78857 21.8318 9.78857 18.4754C9.78857 15.1168 7.90472 13.5143 5.52145 11.4823C2.93293 9.27664 0 6.77498 0 1.79167C0 0.801247 0.821029 0 1.83366 0C2.84857 0 3.6696 0.801247 3.6696 1.79167C3.6696 5.14801 5.55337 6.75272 7.93663 8.78482C10.5252 10.9904 13.4558 13.4898 13.4558 18.4754C13.4558 23.4587 10.5252 25.9604 7.93441 28.1661C5.55337 30.1981 3.6696 31.8028 3.6696 35.1592C3.6696 38.5132 5.55337 40.1158 7.93441 42.1456C10.5252 44.349 13.4558 46.8485 13.4558 51.8317C13.4558 56.8106 10.5229 59.3056 7.93441 61.5112C5.55115 63.5388 3.6696 65.1392 3.6696 68.4888C3.6696 71.8407 5.55115 73.4432 7.93441 75.473C10.5229 77.6764 13.4558 80.1759 13.4558 85.1569C13.4558 90.1358 10.5229 92.6355 7.93441 94.8361C5.55115 96.8637 3.6696 98.4667 3.6696 101.818C3.6696 102.807 2.84857 103.61 1.83366 103.61C0.821029 103.61 0 102.807 0 101.818L0 101.818Z" transform="translate(17.59996 1.4106445)" id="Shape-Copy-2" fill="#F64B4B" fill-rule="evenodd" stroke="none" />
      <path d="M0 101.818C0 96.8369 2.93515 94.3403 5.52145 92.1369C7.90472 90.1091 9.78857 88.5088 9.78857 85.1569C9.78857 81.8028 7.90472 80.2003 5.52145 78.1705C2.93515 75.9671 0 73.4699 0 68.4888C0 63.5099 2.93515 61.0149 5.52145 58.8093C7.90472 56.7839 9.78857 55.1814 9.78857 51.8317C9.78857 48.4776 7.90472 46.8729 5.52145 44.8431C2.93515 42.6396 0 40.1402 0 35.1592C0 30.1736 2.93293 27.6742 5.51914 25.4685C7.90472 23.4365 9.78857 21.8318 9.78857 18.4754C9.78857 15.1168 7.90472 13.5143 5.52145 11.4823C2.93293 9.27664 0 6.77498 0 1.79167C0 0.801247 0.821029 0 1.83366 0C2.84857 0 3.6696 0.801247 3.6696 1.79167C3.6696 5.14801 5.55337 6.75272 7.93663 8.78482C10.5252 10.9904 13.4558 13.4898 13.4558 18.4754C13.4558 23.4587 10.5252 25.9604 7.93441 28.1661C5.55337 30.1981 3.6696 31.8028 3.6696 35.1592C3.6696 38.5132 5.55337 40.1158 7.93441 42.1456C10.5252 44.349 13.4558 46.8485 13.4558 51.8317C13.4558 56.8106 10.5229 59.3056 7.93441 61.5112C5.55115 63.5388 3.6696 65.1392 3.6696 68.4888C3.6696 71.8407 5.55115 73.4432 7.93441 75.473C10.5229 77.6764 13.4558 80.1759 13.4558 85.1569C13.4558 90.1358 10.5229 92.6355 7.93441 94.8361C5.55115 96.8637 3.6696 98.4667 3.6696 101.818C3.6696 102.807 2.84857 103.61 1.83366 103.61C0.821029 103.61 0 102.807 0 101.818L0 101.818Z" transform="translate(-3.0517578E-05 4.5776367E-05)" id="Shape-Copy" fill="#F64B4B" fill-rule="evenodd" stroke="none" />
    </g>
  </g>
</svg>